<mxfile host="app.diagrams.net" modified="2023-08-23T02:45:38.533Z" agent="Mozilla/5.0 (Windows NT 10.0; Win64; x64) AppleWebKit/537.36 (KHTML, like Gecko) Chrome/115.0.0.0 Safari/537.36 Edg/115.0.1901.188" etag="t8fxX0D9K26Vw_Tx4QZx" version="21.6.5" type="github">
  <diagram name="第 1 页" id="6kwac-lvCLyZTH2dsMiq">
    <mxGraphModel dx="2206" dy="764" grid="1" gridSize="10" guides="1" tooltips="1" connect="1" arrows="1" fold="1" page="1" pageScale="1" pageWidth="827" pageHeight="1169" math="0" shadow="0">
      <root>
        <mxCell id="0" />
        <mxCell id="1" parent="0" />
        <mxCell id="MbM5e3I2AGBSMbuFfObf-96" value="" style="shape=curlyBracket;whiteSpace=wrap;html=1;rounded=1;labelPosition=left;verticalLabelPosition=middle;align=right;verticalAlign=middle;" vertex="1" parent="1">
          <mxGeometry x="150" y="478" width="20" height="490" as="geometry" />
        </mxCell>
        <mxCell id="MbM5e3I2AGBSMbuFfObf-97" value="vector &amp;lt;int&amp;gt; v1={0,1,2,3}" style="text;html=1;align=center;verticalAlign=middle;resizable=0;points=[];autosize=1;strokeColor=none;fillColor=none;fontSize=15;" vertex="1" parent="1">
          <mxGeometry x="-25" y="708" width="190" height="30" as="geometry" />
        </mxCell>
        <mxCell id="MbM5e3I2AGBSMbuFfObf-99" value="取值" style="rounded=1;whiteSpace=wrap;html=1;" vertex="1" parent="1">
          <mxGeometry x="180" y="460" width="80" height="40" as="geometry" />
        </mxCell>
        <mxCell id="MbM5e3I2AGBSMbuFfObf-100" value="" style="shape=curlyBracket;whiteSpace=wrap;html=1;rounded=1;labelPosition=left;verticalLabelPosition=middle;align=right;verticalAlign=middle;" vertex="1" parent="1">
          <mxGeometry x="255" y="375" width="50" height="210" as="geometry" />
        </mxCell>
        <mxCell id="MbM5e3I2AGBSMbuFfObf-102" value="int tmp = v1[0]" style="text;html=1;align=center;verticalAlign=middle;resizable=0;points=[];autosize=1;strokeColor=none;fillColor=none;" vertex="1" parent="1">
          <mxGeometry x="312" y="370" width="100" height="30" as="geometry" />
        </mxCell>
        <mxCell id="MbM5e3I2AGBSMbuFfObf-103" value="int tmp = v1,at(0)" style="text;html=1;align=center;verticalAlign=middle;resizable=0;points=[];autosize=1;strokeColor=none;fillColor=none;" vertex="1" parent="1">
          <mxGeometry x="312" y="404" width="110" height="30" as="geometry" />
        </mxCell>
        <mxCell id="MbM5e3I2AGBSMbuFfObf-104" value="int tmp = *v1,begin()" style="text;html=1;align=center;verticalAlign=middle;resizable=0;points=[];autosize=1;strokeColor=none;fillColor=none;" vertex="1" parent="1">
          <mxGeometry x="312" y="438" width="130" height="30" as="geometry" />
        </mxCell>
        <mxCell id="MbM5e3I2AGBSMbuFfObf-106" value="int tmp = v1,front()" style="text;html=1;align=center;verticalAlign=middle;resizable=0;points=[];autosize=1;strokeColor=none;fillColor=none;" vertex="1" parent="1">
          <mxGeometry x="312" y="506" width="120" height="30" as="geometry" />
        </mxCell>
        <mxCell id="MbM5e3I2AGBSMbuFfObf-107" value="int * tmp = v1,data()" style="text;html=1;align=center;verticalAlign=middle;resizable=0;points=[];autosize=1;strokeColor=none;fillColor=none;" vertex="1" parent="1">
          <mxGeometry x="312" y="540" width="130" height="30" as="geometry" />
        </mxCell>
        <mxCell id="MbM5e3I2AGBSMbuFfObf-108" value="int tmp = v1,back()" style="text;html=1;align=center;verticalAlign=middle;resizable=0;points=[];autosize=1;strokeColor=none;fillColor=none;" vertex="1" parent="1">
          <mxGeometry x="312" y="472" width="120" height="30" as="geometry" />
        </mxCell>
        <mxCell id="MbM5e3I2AGBSMbuFfObf-109" value="插入" style="rounded=1;whiteSpace=wrap;html=1;" vertex="1" parent="1">
          <mxGeometry x="180" y="640" width="80" height="40" as="geometry" />
        </mxCell>
        <mxCell id="MbM5e3I2AGBSMbuFfObf-110" value="" style="shape=curlyBracket;whiteSpace=wrap;html=1;rounded=1;labelPosition=left;verticalLabelPosition=middle;align=right;verticalAlign=middle;" vertex="1" parent="1">
          <mxGeometry x="255" y="610" width="50" height="100" as="geometry" />
        </mxCell>
        <mxCell id="MbM5e3I2AGBSMbuFfObf-112" value="insert" style="text;html=1;align=center;verticalAlign=middle;resizable=0;points=[];autosize=1;strokeColor=none;fillColor=none;" vertex="1" parent="1">
          <mxGeometry x="312" y="598" width="50" height="30" as="geometry" />
        </mxCell>
        <mxCell id="MbM5e3I2AGBSMbuFfObf-113" value="emplace" style="text;html=1;align=center;verticalAlign=middle;resizable=0;points=[];autosize=1;strokeColor=none;fillColor=none;" vertex="1" parent="1">
          <mxGeometry x="312" y="625" width="70" height="30" as="geometry" />
        </mxCell>
        <mxCell id="MbM5e3I2AGBSMbuFfObf-114" value="push_back" style="text;html=1;align=center;verticalAlign=middle;resizable=0;points=[];autosize=1;strokeColor=none;fillColor=none;" vertex="1" parent="1">
          <mxGeometry x="312" y="653" width="80" height="30" as="geometry" />
        </mxCell>
        <mxCell id="MbM5e3I2AGBSMbuFfObf-115" value="emplace_back" style="text;html=1;align=center;verticalAlign=middle;resizable=0;points=[];autosize=1;strokeColor=none;fillColor=none;" vertex="1" parent="1">
          <mxGeometry x="312" y="680" width="100" height="30" as="geometry" />
        </mxCell>
        <mxCell id="MbM5e3I2AGBSMbuFfObf-116" value="赋值" style="rounded=1;whiteSpace=wrap;html=1;" vertex="1" parent="1">
          <mxGeometry x="180" y="740" width="80" height="40" as="geometry" />
        </mxCell>
        <mxCell id="MbM5e3I2AGBSMbuFfObf-117" value="" style="shape=curlyBracket;whiteSpace=wrap;html=1;rounded=1;labelPosition=left;verticalLabelPosition=middle;align=right;verticalAlign=middle;" vertex="1" parent="1">
          <mxGeometry x="255" y="720" width="50" height="80" as="geometry" />
        </mxCell>
        <mxCell id="MbM5e3I2AGBSMbuFfObf-118" value="assign" style="text;html=1;align=center;verticalAlign=middle;resizable=0;points=[];autosize=1;strokeColor=none;fillColor=none;" vertex="1" parent="1">
          <mxGeometry x="312" y="708" width="60" height="30" as="geometry" />
        </mxCell>
        <mxCell id="MbM5e3I2AGBSMbuFfObf-119" value="v1[0] =1;" style="text;html=1;align=center;verticalAlign=middle;resizable=0;points=[];autosize=1;strokeColor=none;fillColor=none;" vertex="1" parent="1">
          <mxGeometry x="312" y="738" width="70" height="30" as="geometry" />
        </mxCell>
        <mxCell id="MbM5e3I2AGBSMbuFfObf-120" value="v1={1,2,3,4}" style="text;html=1;align=center;verticalAlign=middle;resizable=0;points=[];autosize=1;strokeColor=none;fillColor=none;" vertex="1" parent="1">
          <mxGeometry x="312" y="768" width="90" height="30" as="geometry" />
        </mxCell>
        <mxCell id="MbM5e3I2AGBSMbuFfObf-121" value="删除" style="rounded=1;whiteSpace=wrap;html=1;" vertex="1" parent="1">
          <mxGeometry x="180" y="830" width="80" height="40" as="geometry" />
        </mxCell>
        <mxCell id="MbM5e3I2AGBSMbuFfObf-122" value="" style="shape=curlyBracket;whiteSpace=wrap;html=1;rounded=1;labelPosition=left;verticalLabelPosition=middle;align=right;verticalAlign=middle;" vertex="1" parent="1">
          <mxGeometry x="255" y="810" width="50" height="80" as="geometry" />
        </mxCell>
        <mxCell id="MbM5e3I2AGBSMbuFfObf-123" value="erase " style="text;html=1;align=center;verticalAlign=middle;resizable=0;points=[];autosize=1;strokeColor=none;fillColor=none;" vertex="1" parent="1">
          <mxGeometry x="312" y="800" width="50" height="30" as="geometry" />
        </mxCell>
        <mxCell id="MbM5e3I2AGBSMbuFfObf-124" value="pop_back" style="text;html=1;align=center;verticalAlign=middle;resizable=0;points=[];autosize=1;strokeColor=none;fillColor=none;" vertex="1" parent="1">
          <mxGeometry x="312" y="868" width="80" height="30" as="geometry" />
        </mxCell>
        <mxCell id="MbM5e3I2AGBSMbuFfObf-125" value="杂项" style="rounded=1;whiteSpace=wrap;html=1;" vertex="1" parent="1">
          <mxGeometry x="180" y="930" width="80" height="40" as="geometry" />
        </mxCell>
        <mxCell id="MbM5e3I2AGBSMbuFfObf-126" value="" style="shape=curlyBracket;whiteSpace=wrap;html=1;rounded=1;labelPosition=left;verticalLabelPosition=middle;align=right;verticalAlign=middle;" vertex="1" parent="1">
          <mxGeometry x="255" y="910" width="50" height="80" as="geometry" />
        </mxCell>
        <mxCell id="MbM5e3I2AGBSMbuFfObf-127" value="reserve" style="text;html=1;align=center;verticalAlign=middle;resizable=0;points=[];autosize=1;strokeColor=none;fillColor=none;" vertex="1" parent="1">
          <mxGeometry x="312" y="898" width="60" height="30" as="geometry" />
        </mxCell>
        <mxCell id="MbM5e3I2AGBSMbuFfObf-128" value="resize" style="text;html=1;align=center;verticalAlign=middle;resizable=0;points=[];autosize=1;strokeColor=none;fillColor=none;" vertex="1" parent="1">
          <mxGeometry x="312" y="928" width="60" height="30" as="geometry" />
        </mxCell>
        <mxCell id="MbM5e3I2AGBSMbuFfObf-129" value=".&lt;span lang=&quot;zh-CN&quot;&gt;shrink_to_fit&lt;/span&gt;&lt;span lang=&quot;en-US&quot;&gt;&lt;/span&gt;" style="text;html=1;align=center;verticalAlign=middle;resizable=0;points=[];autosize=1;strokeColor=none;fillColor=none;" vertex="1" parent="1">
          <mxGeometry x="312" y="968" width="90" height="30" as="geometry" />
        </mxCell>
      </root>
    </mxGraphModel>
  </diagram>
</mxfile>
